<mxfile host="app.diagrams.net" modified="2021-01-07T16:41:27.435Z" agent="5.0 (X11)" etag="ctw8MEFe5ohu47MUAD_J" version="14.1.8" type="github">
  <diagram id="R2lEEEUBdFMjLlhIrx00" name="Page-1">
    <mxGraphModel dx="803" dy="433" grid="1" gridSize="10" guides="1" tooltips="1" connect="1" arrows="1" fold="1" page="1" pageScale="1" pageWidth="850" pageHeight="1100" math="0" shadow="0" extFonts="Permanent Marker^https://fonts.googleapis.com/css?family=Permanent+Marker">
      <root>
        <mxCell id="0" />
        <mxCell id="1" parent="0" />
        <mxCell id="e2l0J5dMDvY-RKBHQHOM-1" value="&lt;font style=&quot;font-size: 20px&quot;&gt;run.py&lt;/font&gt;" style="rounded=1;whiteSpace=wrap;html=1;" parent="1" vertex="1">
          <mxGeometry x="365" y="50" width="120" height="60" as="geometry" />
        </mxCell>
        <mxCell id="MsPKLcYa7dnI0dLUFBNp-1" style="edgeStyle=orthogonalEdgeStyle;rounded=0;orthogonalLoop=1;jettySize=auto;html=1;exitX=0.5;exitY=0;exitDx=0;exitDy=0;entryX=0.5;entryY=1;entryDx=0;entryDy=0;" edge="1" parent="1" source="e2l0J5dMDvY-RKBHQHOM-2" target="e2l0J5dMDvY-RKBHQHOM-1">
          <mxGeometry relative="1" as="geometry" />
        </mxCell>
        <mxCell id="e2l0J5dMDvY-RKBHQHOM-2" value="&lt;font style=&quot;font-size: 20px&quot;&gt;main.py&lt;/font&gt;" style="rounded=1;whiteSpace=wrap;html=1;" parent="1" vertex="1">
          <mxGeometry x="365" y="250" width="120" height="60" as="geometry" />
        </mxCell>
        <mxCell id="e2l0J5dMDvY-RKBHQHOM-15" style="edgeStyle=orthogonalEdgeStyle;rounded=0;orthogonalLoop=1;jettySize=auto;html=1;exitX=0.5;exitY=0;exitDx=0;exitDy=0;entryX=0.5;entryY=1;entryDx=0;entryDy=0;" parent="1" source="e2l0J5dMDvY-RKBHQHOM-4" target="e2l0J5dMDvY-RKBHQHOM-2" edge="1">
          <mxGeometry relative="1" as="geometry" />
        </mxCell>
        <mxCell id="e2l0J5dMDvY-RKBHQHOM-4" value="&lt;font style=&quot;font-size: 20px&quot;&gt;read_identity_files.py&lt;/font&gt;" style="rounded=1;whiteSpace=wrap;html=1;" parent="1" vertex="1">
          <mxGeometry x="318" y="390" width="215" height="60" as="geometry" />
        </mxCell>
        <mxCell id="e2l0J5dMDvY-RKBHQHOM-14" style="edgeStyle=orthogonalEdgeStyle;rounded=0;orthogonalLoop=1;jettySize=auto;html=1;exitX=0.5;exitY=0;exitDx=0;exitDy=0;entryX=1;entryY=0.5;entryDx=0;entryDy=0;" parent="1" source="e2l0J5dMDvY-RKBHQHOM-5" target="e2l0J5dMDvY-RKBHQHOM-2" edge="1">
          <mxGeometry relative="1" as="geometry" />
        </mxCell>
        <mxCell id="e2l0J5dMDvY-RKBHQHOM-5" value="&lt;font style=&quot;font-size: 20px&quot;&gt;player.py&lt;/font&gt;" style="rounded=1;whiteSpace=wrap;html=1;" parent="1" vertex="1">
          <mxGeometry x="533" y="310" width="120" height="60" as="geometry" />
        </mxCell>
        <mxCell id="e2l0J5dMDvY-RKBHQHOM-13" style="edgeStyle=orthogonalEdgeStyle;rounded=0;orthogonalLoop=1;jettySize=auto;html=1;exitX=0.5;exitY=0;exitDx=0;exitDy=0;entryX=0;entryY=0.5;entryDx=0;entryDy=0;" parent="1" source="e2l0J5dMDvY-RKBHQHOM-6" target="e2l0J5dMDvY-RKBHQHOM-2" edge="1">
          <mxGeometry relative="1" as="geometry" />
        </mxCell>
        <mxCell id="e2l0J5dMDvY-RKBHQHOM-6" value="&lt;font style=&quot;font-size: 20px&quot;&gt;utils.py&lt;/font&gt;" style="rounded=1;whiteSpace=wrap;html=1;" parent="1" vertex="1">
          <mxGeometry x="198" y="310" width="120" height="60" as="geometry" />
        </mxCell>
        <mxCell id="e2l0J5dMDvY-RKBHQHOM-9" style="edgeStyle=orthogonalEdgeStyle;rounded=0;orthogonalLoop=1;jettySize=auto;html=1;entryX=0.25;entryY=0;entryDx=0;entryDy=0;" parent="1" source="e2l0J5dMDvY-RKBHQHOM-7" target="e2l0J5dMDvY-RKBHQHOM-2" edge="1">
          <mxGeometry relative="1" as="geometry" />
        </mxCell>
        <mxCell id="e2l0J5dMDvY-RKBHQHOM-7" value="&lt;font style=&quot;font-size: 20px&quot;&gt;edit.py&lt;/font&gt;" style="rounded=1;whiteSpace=wrap;html=1;" parent="1" vertex="1">
          <mxGeometry x="200" y="160" width="120" height="60" as="geometry" />
        </mxCell>
        <mxCell id="e2l0J5dMDvY-RKBHQHOM-10" style="edgeStyle=orthogonalEdgeStyle;rounded=0;orthogonalLoop=1;jettySize=auto;html=1;exitX=0;exitY=0.5;exitDx=0;exitDy=0;entryX=0.75;entryY=0;entryDx=0;entryDy=0;" parent="1" source="e2l0J5dMDvY-RKBHQHOM-8" target="e2l0J5dMDvY-RKBHQHOM-2" edge="1">
          <mxGeometry relative="1" as="geometry" />
        </mxCell>
        <mxCell id="e2l0J5dMDvY-RKBHQHOM-8" value="&lt;font style=&quot;font-size: 20px&quot;&gt;markov.py&lt;/font&gt;" style="rounded=1;whiteSpace=wrap;html=1;" parent="1" vertex="1">
          <mxGeometry x="520" y="160" width="120" height="60" as="geometry" />
        </mxCell>
      </root>
    </mxGraphModel>
  </diagram>
</mxfile>
